# xmcd
#
# Track frame offsets: 
#        150
#        9077
#        23026
#        34194
#        48872
#        62848
#        77958
#        90098
#        105289
#        118158
#        129488
#        144301
#        158709
#        171362
#        183205
#        195048
#        206297
#        219760
#        233736
#        243824
#        254506
#        266673
#        280541
#        295786
#        308601
#
# Disc length: 4644 seconds
#
# Revision: 0
# Processed by: cddbd v1.5.2PL0 Copyright (c) Steve Scherf et al.
# Submitted via: ExactAudioCopy v0.99pb5
#
DISCID=36122219
DTITLE=Various Artist - The Essential Collection - CD1
DYEAR=2006
DGENRE=Easy Listening
TTITLE0=Al Jolson - Swanee
TTITLE1=Sue Allen and Billy Butterfield - Do it Again
TTITLE2=Hazel Scott - Fascinating Rhythm
TTITLE3=Ike Hatch - Oh, Lady Be Good!
TTITLE4=Fred Astaire and Adele Astaire - I'd Rather Charleston
TTITLE5=Lena Horne - The Man I Love
TTITLE6=Eddie Condon - Somebody Loves Me
TTITLE7=Ella Fitzgerald - Looking for A Boy
TTITLE8=Bing Crosby - Maybe
TTITLE9=Merry Macs - Clap Yo' Hands
TTITLE10=Gertrude Lawrence - Do, Do, Do
TTITLE11=Lee Wiley - Someone to Watch Over Me
TTITLE12=Whispering Smith - Funny Face
TTITLE13=Hutch - High Hat
TTITLE14=Dinah Shore - 'S Wonderful
TTITLE15=Hutch - He Loves and She Loves
TTITLE16=Jack Hylton - My One and Only
TTITLE17=Sarah Vaughan - I've Got A Crush on You
TTITLE18=Al Jolson - Liza (All The Clouds'll Roll Away)
TTITLE19=Carroll Gibbons - Strike Up The Band
TTITLE20=Foursome - Bidin' My Time
TTITLE21=Judy Garland and Mickey Rooney - Could You Use Me?
TTITLE22=Frank Sinatra - Embraceable You
TTITLE23=Jack Simpson - I Got Rhythm
TTITLE24=George Gershwin and Paul Whiteman - Rhapsody in Blue
EXTD=
EXTT0=
EXTT1=
EXTT2=
EXTT3=
EXTT4=
EXTT5=
EXTT6=
EXTT7=
EXTT8=
EXTT9=
EXTT10=
EXTT11=
EXTT12=
EXTT13=
EXTT14=
EXTT15=
EXTT16=
EXTT17=
EXTT18=
EXTT19=
EXTT20=
EXTT21=
EXTT22=
EXTT23=
EXTT24=
PLAYORDER=
